<?xml version="1.0" encoding="UTF-8"?>
<svg xmlns="http://www.w3.org/2000/svg" xmlns:xlink="http://www.w3.org/1999/xlink" width="952px" height="1014px" viewBox="0 0 952 1014" version="1.1">
<g id="surface1">
<path style=" stroke:none;fill-rule:evenodd;fill:rgb(0%,0%,0%);fill-opacity:1;" d="M 328.660156 0.0195312 C 326.53125 0.136719 326.421875 0.777344 326.785156 2.519531 C 327.347656 5.230469 328.359375 9.765625 333.285156 15.894531 C 335.574219 18.746094 336.886719 28.175781 334.035156 36.769531 C 332.421875 41.632812 327.628906 46.09375 324.847656 51.019531 C 321.695312 56.605469 320.535156 62.722656 318.535156 68.644531 C 316.089844 75.890625 308.015625 76.15625 304.160156 82.394531 C 298.464844 91.613281 299.320312 97.582031 293.597656 104.644531 C 287.507812 112.152344 281.503906 115.972656 278.535156 116.332031 C 278.175781 116.375 275.023438 119.394531 274.347656 119.394531 C 274.347656 122.359375 267.097656 127.855469 267.097656 134.957031 C 264.367188 134.957031 262.59375 169.394531 261.972656 173.269531 C 260.847656 180.28125 253.566406 189.800781 243.597656 198.144531 C 235.335938 205.058594 225.070312 210.722656 216.222656 217.519531 C 198.988281 230.761719 187.261719 245.460938 188.535156 247.019531 C 189.664062 248.414062 198.269531 247.203125 206.410156 243.457031 C 213.589844 240.152344 219.964844 234.265625 225.535156 236.019531 C 229.273438 237.199219 216.628906 265.859375 216.472656 267.457031 C 215.898438 273.292969 214.140625 279.167969 213.910156 284.269531 C 213.5 293.367188 215.222656 300.132812 217.785156 300.269531 C 223.785156 300.59375 230.320312 277.316406 242.347656 258.582031 C 254.375 239.851562 271.902344 225.636719 282.347656 216.207031 C 292.472656 207.066406 301.035156 195.800781 302.222656 187.769531 C 302.398438 186.546875 304.226562 180.675781 304.660156 172.394531 C 305.121094 163.578125 304.339844 152 308.847656 140.332031 C 312.539062 130.777344 325.179688 120.75 331.160156 114.519531 C 339.109375 106.238281 345.246094 97.949219 345.660156 99.769531 C 349.816406 118.089844 350.359375 141.71875 355.222656 163.082031 C 358.863281 179.085938 365.964844 198.902344 364.160156 214.707031 C 363.742188 218.355469 362.4375 217.992188 360.972656 221.644531 C 356.539062 232.710938 348.324219 244.550781 339.785156 258.707031 C 328.445312 277.5 315.933594 299.355469 304.597656 319.082031 C 300.304688 326.554688 294.175781 330.648438 288.910156 335.644531 C 280.953125 343.1875 274.023438 350.210938 271.410156 353.582031 C 267.121094 359.109375 265.035156 365.03125 266.472656 366.207031 C 267.101562 366.722656 269.527344 366.242188 272.222656 364.144531 C 274.316406 362.511719 276.363281 359.441406 279.347656 358.082031 C 282.898438 356.464844 278.234375 379.84375 281.160156 402.394531 C 284.039062 424.632812 293.675781 444.722656 298.722656 448.644531 C 300.21875 449.808594 309.851562 463.222656 311.535156 470.894531 C 311.84375 472.316406 310.503906 473.808594 310.472656 474.519531 C 309.480469 495.652344 258.105469 438.371094 243.160156 407.644531 C 236.105469 393.140625 227.179688 363.398438 227.660156 348.019531 C 228.121094 333.152344 233.828125 318.367188 239.722656 312.332031 C 241.078125 310.941406 242.414062 309.183594 243.347656 307.832031 C 244.695312 305.875 242.835938 304.539062 241.910156 304.582031 C 237.898438 304.765625 227.148438 323.394531 226.847656 323.394531 C 226.847656 332.304688 209.984375 337.5 206.097656 343.019531 C 204.382812 345.457031 196.472656 349.902344 188.847656 355.207031 C 184.269531 358.390625 180.566406 363.246094 176.285156 364.332031 C 174.882812 364.691406 173.34375 362.875 172.035156 362.769531 C 171.054688 362.691406 169.101562 360.425781 168.410156 359.769531 C 167.757812 359.152344 164.789062 348.433594 164.785156 348.269531 C 164.617188 343.917969 153.261719 306.429688 142.410156 271.894531 C 132.972656 241.863281 124.332031 213.792969 121.160156 214.707031 C 119.738281 215.113281 121.445312 221.308594 121.410156 243.707031 C 121.410156 243.828125 95.183594 297.234375 93.222656 303.269531 C 92.8125 304.527344 89.503906 329.578125 84.972656 356.457031 C 82.429688 371.535156 83.574219 389.445312 81.472656 402.957031 C 79.773438 413.867188 78.371094 424.488281 76.347656 425.894531 C 72.367188 428.660156 75.757812 434.574219 75.910156 434.707031 C 78.117188 436.617188 87.804688 419.152344 91.785156 404.394531 C 95.53125 390.492188 98.660156 374.601562 98.660156 366.894531 C 98.707031 366.894531 107.476562 321.332031 111.097656 321.332031 C 111.097656 310.726562 129.542969 273.375 134.847656 279.957031 C 137.1875 282.863281 139.882812 288.71875 140.535156 297.769531 C 141.074219 305.269531 139.859375 315.074219 139.035156 326.207031 C 136.953125 354.257812 133.257812 381.273438 130.222656 408.832031 C 126.789062 439.980469 118.550781 528.09375 118.285156 529.394531 C 116.714844 537.058594 114.128906 570.394531 110.660156 604.082031 C 106.5 644.488281 102.785156 685.59375 102.785156 685.707031 C 102.671875 700.40625 78.40625 673.625 76.972656 673.332031 C 69.925781 671.894531 10.21875 615.933594 0.722656 617.957031 C -0.835938 618.289062 0.289062 622.121094 2.535156 625.644531 C 7.117188 632.847656 52.351562 670.265625 75.347656 689.957031 C 86.078125 699.144531 87.949219 696.890625 88.347656 705.582031 C 88.625 711.707031 65.933594 723.527344 54.785156 733.707031 C 50.105469 737.980469 46.558594 740.945312 49.035156 744.707031 C 49.792969 745.863281 54.09375 743.988281 53.910156 745.769531 C 51.214844 771.636719 56.863281 783.25 60.097656 789.582031 C 63.261719 795.785156 66 802.785156 71.097656 809.457031 C 83.535156 825.730469 106.9375 842.390625 126.597656 848.269531 C 131.425781 849.710938 146.703125 857.746094 167.285156 858.457031 C 182.789062 858.996094 198.9375 856.273438 204.847656 856.394531 C 212.980469 856.566406 206.105469 861.851562 202.785156 870.394531 C 199.367188 879.191406 199.128906 889.433594 199.160156 899.207031 C 199.164062 900.8125 201.710938 918.371094 200.972656 918.644531 C 200.714844 918.742188 200.4375 918.800781 200.160156 918.894531 C 193.863281 920.972656 187.628906 920.105469 181.910156 921.707031 C 172.984375 924.207031 164.871094 929.519531 156.285156 936.519531 C 148.371094 942.976562 143.410156 953.554688 139.410156 961.644531 C 136.339844 967.851562 133.273438 972.257812 133.222656 974.144531 C 133.1875 975.300781 137.6875 973.460938 141.535156 970.519531 C 144.734375 968.074219 145.746094 965.300781 147.972656 964.332031 C 154.289062 961.585938 159.65625 963.65625 160.097656 967.957031 C 160.507812 971.972656 156.679688 976.058594 152.972656 979.707031 C 138.832031 993.617188 117.792969 976.878906 106.785156 965.707031 C 103.324219 962.199219 102.992188 959.390625 101.410156 958.707031 C 98.945312 957.648438 96.4375 959.53125 94.660156 963.332031 C 93.519531 965.769531 93.285156 969.21875 91.660156 972.457031 C 88.996094 977.765625 84.902344 979.683594 76.347656 986.894531 C 69.523438 992.648438 49.558594 991.960938 52.847656 986.019531 C 53.316406 985.171875 56.171875 984.925781 57.347656 983.832031 C 59.351562 981.96875 58.40625 980.933594 57.847656 979.707031 C 56.703125 977.203125 53.320312 975.523438 53.160156 975.519531 C 48.34375 975.457031 44.484375 974.386719 41.660156 976.332031 C 37.898438 978.917969 36.957031 983.785156 36.035156 988.644531 C 35.113281 993.503906 34.199219 998.367188 35.222656 1002.269531 C 36.632812 1007.675781 40.769531 1011.695312 42.910156 1011.832031 C 43.320312 1011.859375 45.933594 1012.703125 51.722656 1013.144531 L 925.597656 1013.582031 C 929.929688 1011.84375 933.988281 1012.671875 937.222656 1010.894531 C 946.90625 1005.578125 949.871094 996.550781 952.160156 982.457031 C 953.410156 974.769531 949.917969 965.078125 948.535156 962.269531 C 946.738281 958.636719 944.628906 956.074219 941.910156 952.894531 C 933.753906 943.355469 920.121094 936.574219 906.410156 937.019531 C 893.902344 937.421875 883.683594 944.273438 882.347656 953.082031 C 881.8125 956.574219 883.554688 961.914062 884.035156 964.207031 C 884.324219 965.605469 885.601562 971.335938 888.972656 975.457031 C 891.867188 979.003906 897.714844 980.34375 903.097656 979.207031 C 907.847656 978.203125 912.195312 975.140625 914.660156 972.332031 C 918.46875 967.988281 915.980469 959.597656 915.097656 956.457031 C 914.242188 953.429688 913.136719 957.132812 912.972656 960.082031 C 912.90625 961.265625 911.804688 963.171875 911.035156 963.707031 C 906.113281 967.128906 897.667969 968.507812 897.472656 959.082031 C 897.121094 942.269531 944.390625 954.054688 927.472656 980.519531 C 924.027344 985.910156 916.628906 987.066406 911.347656 987.019531 C 897.363281 986.898438 882.4375 982.980469 869.597656 977.519531 C 853.957031 970.867188 833.980469 959.507812 815.285156 950.332031 C 798.261719 941.976562 781.488281 938.09375 774.035156 930.707031 C 770.214844 926.925781 770.503906 921.390625 771.410156 918.644531 C 772.078125 916.617188 772.847656 914.113281 774.910156 911.519531 C 779.449219 905.820312 786.589844 898.597656 786.660156 887.644531 C 786.71875 878.707031 782.855469 867.382812 777.910156 863.394531 C 774.257812 860.449219 767.097656 859.550781 762.410156 856.957031 C 760.574219 855.941406 759.972656 854.25 758.847656 852.707031 C 757.371094 850.6875 756.917969 847.734375 755.597656 845.207031 C 753.558594 841.3125 751.917969 837.441406 748.160156 834.769531 C 743.085938 831.167969 736.398438 832.359375 727.785156 826.832031 C 724.183594 824.519531 726.910156 816.691406 717.285156 812.582031 C 714.320312 811.320312 711.984375 813.191406 708.347656 810.957031 C 707.621094 810.511719 707.304688 805.183594 703.597656 801.019531 C 700.324219 797.34375 693.636719 794.933594 692.910156 793.207031 C 691.324219 789.449219 693.546875 780.769531 692.847656 772.707031 C 692.605469 769.910156 688.460938 756.644531 690.535156 750.394531 C 691.851562 746.421875 699.324219 745.597656 705.222656 745.207031 C 712.039062 744.753906 721.4375 746.0625 731.347656 746.644531 C 754.199219 747.988281 781.007812 752.769531 792.222656 753.582031 C 794.742188 753.765625 796.5 753.933594 797.222656 754.019531 C 830.445312 757.945312 871.28125 791.949219 879.035156 789.769531 C 883.617188 788.484375 863.855469 773.480469 861.035156 771.769531 C 856.371094 768.945312 837.324219 758.898438 820.785156 744.207031 C 802.621094 728.074219 786.507812 708.714844 784.785156 707.457031 C 780.265625 704.160156 760.835938 681.792969 750.347656 662.269531 C 746.1875 654.527344 742.65625 641.515625 739.785156 632.519531 C 734.78125 616.832031 727.53125 586.140625 726.160156 556.582031 C 725.28125 537.726562 728.121094 520.226562 728.910156 512.457031 C 734.46875 457.488281 764.109375 377.652344 788.035156 333.019531 C 794.554688 320.855469 803.007812 308.667969 809.597656 297.082031 C 813.839844 289.617188 816.738281 281.097656 820.722656 274.582031 C 825.058594 267.480469 832.195312 263.699219 835.722656 258.207031 C 842.265625 248.011719 847.082031 241.144531 848.910156 239.519531 C 851.828125 236.917969 846.816406 236.996094 844.222656 238.332031 C 840.886719 240.054688 836.808594 242.625 836.472656 243.707031 C 835.304688 247.433594 816.90625 263.5 800.472656 287.207031 C 798.457031 290.113281 795.0625 289.734375 792.535156 292.457031 C 790.175781 294.996094 790.054688 298.527344 788.097656 301.894531 C 786.253906 305.054688 782.558594 308.035156 780.160156 310.457031 C 773.179688 317.496094 762.652344 322.785156 755.722656 329.644531 C 749.640625 335.667969 743.207031 341.054688 738.347656 347.082031 C 723.921875 364.976562 711.089844 376.40625 705.535156 380.207031 C 700.445312 383.691406 696.136719 387.265625 693.097656 390.144531 C 690.414062 392.6875 689.355469 395.457031 687.722656 395.144531 C 686.277344 394.871094 686.214844 390.289062 686.222656 387.957031 C 686.238281 380.414062 686.828125 370.441406 684.722656 368.019531 C 682.714844 365.714844 678.117188 366.457031 676.222656 362.394531 C 673.117188 355.742188 675.984375 338.3125 677.910156 322.582031 C 679.378906 310.574219 679.558594 299.300781 681.472656 295.457031 C 682.046875 294.308594 683.140625 288.523438 683.035156 281.144531 C 682.941406 274.636719 681.566406 266.898438 683.097656 260.019531 C 683.625 257.640625 684.503906 256.609375 684.660156 253.019531 C 684.921875 247.039062 685.097656 241.484375 684.785156 237.582031 C 684.265625 231.113281 683.539062 229.933594 681.472656 232.832031 C 679.648438 235.394531 673.285156 265.089844 669.785156 294.394531 C 666.421875 322.53125 663.941406 349.683594 663.910156 350.332031 C 663.261719 363.53125 656.886719 364.480469 654.660156 364.832031 C 652.675781 365.144531 651.675781 366.972656 650.222656 367.769531 C 641.316406 372.648438 642.519531 384.835938 645.410156 398.644531 C 646.570312 404.195312 650.644531 411.292969 652.785156 413.707031 C 657.496094 419.023438 660.125 416.933594 654.660156 433.144531 C 654.40625 433.902344 652.726562 437.613281 649.535156 442.019531 C 644.863281 448.464844 636.964844 456.847656 629.410156 467.644531 C 624.328125 474.90625 619.839844 484.351562 614.535156 492.082031 C 596.695312 518.082031 578.976562 541.589844 578.160156 541.832031 C 577.828125 541.929688 563.414062 564.835938 554.035156 577.644531 C 549.289062 584.125 547.144531 581.671875 546.035156 585.332031 C 545.539062 586.96875 546.734375 591.96875 547.410156 595.207031 C 547.84375 595.128906 548.234375 595.085938 548.222656 595.394531 C 548.003906 601.125 553.234375 616.023438 552.410156 616.519531 C 552.3125 616.582031 568.675781 656.089844 575.160156 665.332031 C 576.414062 667.121094 577.222656 668.105469 578.472656 670.082031 C 580.125 672.703125 582.339844 677.335938 585.785156 680.957031 C 592.363281 687.871094 601.023438 693.914062 601.972656 695.207031 C 603.601562 697.433594 611.414062 709.453125 616.097656 713.519531 C 616.816406 714.144531 618.78125 715.792969 619.535156 716.332031 C 620.082031 716.722656 625.828125 719.015625 626.222656 721.394531 C 626.355469 722.1875 627.820312 725.269531 625.722656 725.269531 C 625.722656 724.414062 618.910156 721.074219 616.347656 718.519531 C 615.085938 717.265625 612.125 715.066406 611.347656 714.144531 C 607.542969 709.664062 602.039062 701.234375 598.597656 696.519531 C 590.707031 685.722656 578.105469 682.058594 572.785156 667.207031 C 571.835938 664.5625 570.421875 663.332031 568.910156 661.082031 C 566.351562 657.277344 561.394531 649.277344 557.972656 641.207031 C 554.757812 633.625 553.011719 625.925781 552.035156 623.519531 C 550.824219 620.535156 546.453125 601.875 545.785156 596.957031 C 546.5625 598.15625 547.167969 597.398438 547.535156 597.894531 C 548.09375 598.648438 547.820312 597.183594 547.410156 595.207031 C 546.714844 595.335938 545.816406 595.703125 545.722656 595.769531 C 545.648438 595.824219 545.699219 596.238281 545.785156 596.894531 C 545.34375 596.195312 544.828125 594.929688 544.222656 592.394531 C 534.210938 550.609375 531.96875 518.785156 535.035156 474.707031 C 535.644531 465.902344 533.855469 457.78125 534.910156 448.582031 C 538.195312 419.914062 542.941406 391.746094 552.035156 363.644531 C 565.167969 323.0625 585.125 283.03125 602.785156 245.769531 C 612.6875 224.875 620.304688 208.152344 624.660156 206.394531 C 625.445312 206.078125 633.160156 201.40625 639.472656 195.769531 C 643.011719 192.609375 645.148438 187.710938 646.410156 185.707031 C 649.019531 181.5625 650.640625 177.21875 650.660156 176.957031 C 651.222656 168.675781 578.347656 232.535156 576.097656 237.457031 C 575.066406 239.714844 558.5 237.113281 546.722656 236.394531 C 515.480469 234.484375 489.429688 220.964844 485.410156 185.207031 C 483.402344 167.367188 488.019531 148.859375 490.285156 144.332031 C 491.949219 141.003906 491.921875 137.949219 494.285156 134.144531 C 500.324219 124.425781 510.394531 113.234375 518.097656 105.519531 C 526.433594 97.167969 535.015625 90.859375 532.660156 86.519531 C 528.558594 78.980469 502.425781 110.824219 495.222656 119.644531 C 489.945312 126.105469 481.222656 135.039062 471.910156 142.082031 C 455.304688 154.640625 437.25 164.515625 436.597656 167.082031 C 436.289062 168.300781 426.230469 173.898438 415.660156 180.894531 C 399.695312 191.460938 380.390625 203.777344 379.785156 204.332031 C 378.679688 205.34375 375.914062 204.828125 374.785156 204.269531 C 372.5625 203.167969 372.128906 200.84375 371.160156 198.332031 C 368.679688 191.917969 368.472656 183.132812 368.410156 181.582031 C 367.085938 150.511719 357.335938 113.855469 350.410156 78.707031 C 347.414062 63.515625 343.902344 48.582031 343.535156 34.519531 C 343.40625 29.585938 338.410156 19.898438 338.535156 12.144531 C 338.636719 5.722656 343.019531 0.65625 342.722656 0.644531 C 334.941406 0.316406 330.785156 -0.0976562 328.660156 0.0195312 Z M 444.472656 167.894531 C 450.234375 167.441406 423.300781 193.121094 423.160156 193.144531 C 422.289062 193.285156 403.535156 210.125 403.535156 211.769531 C 401.152344 211.769531 386.203125 230.640625 384.972656 233.519531 C 384.445312 234.753906 381.066406 237.304688 378.722656 235.394531 C 376.8125 233.839844 376.644531 228.230469 376.410156 223.019531 C 376.125 216.738281 377.972656 209.175781 381.910156 208.707031 C 382.765625 208.605469 391.636719 203.785156 400.222656 198.644531 C 407.375 194.363281 444.019531 167.929688 444.472656 167.894531 Z M 364.285156 229.144531 C 364.347656 229.140625 364.410156 229.160156 364.472656 229.207031 C 365.128906 229.703125 370.464844 237.378906 369.222656 244.519531 C 367.941406 251.890625 361.214844 259.949219 356.035156 263.582031 C 354.25 264.832031 339.210938 282.519531 335.035156 286.082031 C 334.4375 286.59375 333.859375 286.277344 333.785156 286.144531 C 332.898438 284.578125 335.042969 278.027344 339.472656 269.707031 C 343.238281 262.632812 345.316406 257.59375 348.972656 252.707031 C 352.402344 248.121094 354.097656 242.625 357.347656 239.519531 C 362.238281 234.847656 363.355469 229.214844 364.285156 229.144531 Z M 557.847656 249.269531 C 558.992188 249.28125 559.621094 249.507812 559.597656 250.082031 C 559.441406 253.839844 540.710938 266.976562 522.722656 282.582031 C 501.679688 300.832031 480.699219 321.761719 477.910156 324.582031 C 477.269531 325.230469 466.03125 334.734375 453.347656 345.707031 C 438.410156 358.625 421.222656 373 416.597656 377.582031 C 412.238281 381.898438 409.113281 385.933594 408.035156 383.582031 C 407.839844 383.164062 406.15625 379.78125 406.222656 375.519531 C 406.265625 372.605469 407.917969 369.480469 408.410156 365.707031 C 409.292969 358.925781 412.023438 351.554688 411.972656 344.832031 C 411.894531 335.269531 406.972656 329.394531 406.972656 326.519531 C 406.972656 320.546875 411.824219 314.964844 414.972656 313.269531 C 433.234375 303.425781 445.457031 292.335938 460.660156 283.707031 C 474.210938 276.015625 488.210938 267.253906 504.097656 261.269531 C 514.277344 257.433594 525.316406 255.5625 537.285156 253.144531 C 546.308594 251.324219 554.40625 249.230469 557.847656 249.269531 Z M 144.910156 314.082031 C 145.0625 314.085938 145.242188 314.152344 145.410156 314.269531 C 149.117188 316.871094 150.457031 333.691406 155.660156 348.457031 C 158.386719 356.191406 162.351562 363.457031 164.097656 370.144531 C 165.257812 374.601562 164.339844 377.410156 164.347656 380.082031 C 164.355469 385.554688 154.824219 412.582031 154.472656 412.582031 C 154.472656 423.804688 139.535156 471.851562 130.785156 466.457031 C 125.402344 463.144531 136.179688 375.160156 138.535156 369.957031 C 140.09375 366.519531 140.089844 313.984375 144.910156 314.082031 Z M 204.535156 351.707031 C 205.191406 351.726562 205.683594 352.273438 206.160156 353.582031 C 206.304688 353.992188 205.054688 354.644531 204.035156 355.894531 C 202.542969 357.71875 200.84375 360.5625 199.160156 363.457031 C 196.425781 368.148438 192.519531 372.867188 189.785156 377.582031 C 186.378906 383.453125 184.261719 387.953125 183.347656 387.832031 C 183.179688 387.808594 180.746094 389.125 178.535156 386.957031 C 175.566406 384.050781 176.097656 380.671875 175.910156 378.082031 C 175.714844 375.496094 176.613281 371.6875 179.597656 368.269531 C 184.222656 362.96875 190.914062 359.636719 196.785156 356.394531 C 200.890625 354.128906 203.089844 351.664062 204.535156 351.707031 Z M 740.410156 354.144531 C 741.074219 354.035156 741.472656 354.453125 741.472656 355.644531 C 741.351562 355.644531 724.972656 375.796875 724.972656 376.332031 C 724.507812 376.332031 707.347656 394.621094 707.347656 396.082031 C 705.320312 396.082031 685.710938 421.109375 684.597656 422.957031 C 683.921875 424.074219 683.5 427.289062 679.847656 427.957031 C 678.777344 428.152344 677.285156 428.53125 676.535156 427.707031 C 675.277344 426.335938 675.058594 423.21875 674.847656 422.019531 C 674.054688 417.554688 676.578125 413.785156 677.410156 411.519531 C 679.671875 405.332031 694.972656 396.015625 694.972656 393.957031 C 696.578125 393.957031 708.410156 384.144531 708.410156 382.582031 C 709.527344 382.582031 728.035156 365.683594 728.035156 365.019531 C 729.703125 365.019531 737.53125 354.625 740.410156 354.144531 Z M 369.785156 363.582031 C 371.519531 363.628906 375.605469 369.667969 381.347656 375.582031 C 384.492188 378.824219 389.070312 381.246094 391.285156 384.957031 C 394.972656 391.140625 394.355469 398.941406 386.472656 405.894531 C 381.714844 410.089844 373.253906 413.324219 366.722656 419.644531 C 358.277344 427.816406 349.625 438.707031 341.597656 446.832031 C 331.273438 457.28125 322.320312 464 320.097656 463.269531 C 318.800781 462.84375 319.722656 455.613281 320.597656 450.269531 C 321.953125 441.984375 327.472656 427.351562 331.160156 420.332031 C 336.796875 409.605469 344.722656 399.058594 351.410156 389.769531 C 361.527344 375.714844 368.335938 364.269531 369.472656 363.644531 C 369.566406 363.59375 369.667969 363.578125 369.785156 363.582031 Z M 167.722656 392.519531 C 169.453125 392.128906 170.179688 395.242188 170.472656 395.832031 C 171.148438 397.203125 172.589844 397.847656 172.285156 400.894531 C 171.304688 410.636719 164.121094 419.421875 159.847656 422.644531 C 159.191406 423.140625 156.863281 420.910156 158.035156 418.832031 C 158.691406 417.660156 163.761719 395.226562 166.910156 392.894531 C 167.199219 392.679688 167.472656 392.578125 167.722656 392.519531 Z M 653.660156 443.644531 C 653.988281 443.441406 657.808594 444.554688 654.910156 453.894531 C 654.523438 455.144531 655.464844 458.359375 653.472656 461.207031 C 651.558594 463.941406 647.957031 465.988281 644.597656 469.457031 C 640.785156 473.386719 637.101562 478.828125 633.472656 483.644531 C 622.777344 497.832031 611.9375 513.019531 607.160156 513.019531 C 607.160156 510.738281 619.398438 492.332031 620.597656 492.332031 C 620.597656 490.019531 642.109375 460.207031 642.285156 460.207031 C 642.285156 459.351562 653.121094 443.976562 653.660156 443.644531 Z M 284.847656 496.832031 C 286.269531 496.226562 277.8125 506.984375 276.972656 506.894531 C 276.699219 506.867188 263.875 520.183594 262.035156 521.332031 C 259.671875 522.8125 251.875 528.535156 250.597656 530.582031 C 249.503906 532.335938 246.703125 534.445312 244.972656 536.519531 C 243.113281 538.742188 242.320312 540.867188 240.785156 540.207031 C 239.792969 539.785156 239.394531 537.480469 238.785156 535.019531 C 237.730469 530.765625 239.128906 530.472656 238.160156 528.019531 C 236.742188 524.4375 232.246094 519.566406 224.222656 518.457031 C 222.667969 518.242188 220.160156 517.046875 219.597656 516.144531 C 212.507812 504.789062 227.292969 505.128906 233.035156 502.707031 C 237.375 500.878906 243.058594 501.679688 249.097656 501.707031 C 255.515625 501.738281 277.679688 499.882812 284.847656 496.832031 Z M 203.097656 517.144531 C 205.097656 517.355469 208.328125 520.464844 205.097656 525.457031 C 203.992188 527.167969 200.824219 527.25 199.597656 528.707031 C 198.339844 530.203125 196.171875 535.429688 195.785156 539.894531 C 195.386719 544.503906 196.820312 548.367188 198.035156 549.894531 C 200.128906 552.53125 203.035156 556.046875 205.847656 557.707031 C 208.324219 559.171875 210.886719 558.800781 210.660156 560.957031 C 210.523438 562.230469 209.902344 565.433594 208.035156 564.082031 C 206.683594 563.105469 204.882812 559.546875 203.160156 557.894531 C 201.820312 556.613281 200.507812 556.949219 199.597656 557.769531 C 197.964844 559.242188 203.203125 562.289062 202.472656 566.894531 C 201.738281 571.503906 195.058594 577.683594 193.535156 578.894531 C 192.332031 579.851562 190.878906 579.914062 190.035156 580.769531 C 188.234375 582.59375 188.492188 585.125 189.222656 585.957031 C 190.222656 587.113281 193.183594 587.859375 193.535156 589.582031 C 194.09375 592.339844 192.261719 596.183594 190.160156 599.457031 C 187.375 603.792969 182.480469 606.566406 178.660156 610.207031 C 174.15625 614.496094 171.417969 618.527344 167.972656 617.644531 C 165.21875 616.941406 163.074219 612.949219 162.222656 609.207031 C 160.042969 599.644531 160.847656 585.988281 164.347656 572.894531 C 167.996094 559.238281 175.390625 547.71875 177.285156 545.082031 C 181.472656 539.257812 189.804688 529.351562 196.097656 523.019531 C 199.171875 519.929688 201.125 516.9375 203.097656 517.144531 Z M 123.972656 533.269531 C 125.738281 532.878906 131.441406 561.644531 131.785156 561.644531 C 131.785156 572.285156 150.304688 618.644531 158.660156 618.644531 C 158.660156 637.75 128.722656 640.386719 128.722656 651.769531 C 115.394531 651.769531 137.972656 679.738281 137.972656 668.269531 C 143.148438 668.269531 167.972656 652.9375 167.972656 656.957031 C 166.277344 656.957031 165.53125 660.019531 163.847656 660.019531 C 163.847656 662.40625 141.035156 667.355469 141.035156 671.457031 C 133.808594 671.457031 122.441406 688.019531 110.097656 688.019531 C 110.097656 675.6875 122.292969 536.832031 123.472656 536.832031 C 123.472656 534.390625 123.644531 533.34375 123.972656 533.269531 Z M 350.222656 662.832031 L 351.910156 662.832031 C 351.355469 663.25 350.785156 663.34375 350.285156 662.957031 C 350.265625 662.945312 350.242188 662.855469 350.222656 662.832031 Z M 353.722656 666.957031 C 354.667969 666.84375 357.464844 670.136719 360.535156 674.957031 C 364.394531 681.023438 366.542969 690.921875 370.847656 698.644531 C 373.992188 704.296875 377.289062 711.347656 380.160156 714.332031 C 380.457031 714.640625 385.503906 721.265625 388.660156 722.894531 C 389.332031 723.242188 389.6875 719.9375 393.347656 720.457031 C 397.628906 721.070312 398.097656 722.105469 398.535156 723.332031 C 399.363281 725.671875 396.734375 728.808594 396.722656 731.769531 C 396.703125 735.191406 397.820312 739.257812 395.285156 738.707031 C 394.4375 738.523438 386.855469 733.550781 382.785156 725.457031 C 379.5625 719.042969 375.519531 713.515625 372.785156 708.332031 C 368.039062 699.335938 365.398438 691.589844 362.535156 685.769531 C 360.007812 680.636719 357.101562 677.097656 355.722656 674.144531 C 353.394531 669.160156 352.988281 667.046875 353.722656 666.957031 Z M 196.722656 676.332031 C 197.96875 675.984375 197.125 684.941406 196.847656 691.457031 C 196.648438 696.082031 195.828125 700.476562 195.472656 706.144531 C 194.664062 718.980469 196.246094 733.160156 199.097656 744.582031 C 200.945312 751.984375 204.207031 760.277344 203.285156 760.894531 C 201.417969 762.140625 200.28125 759.777344 197.535156 754.207031 C 194.699219 748.457031 190.273438 739.214844 189.222656 720.769531 C 188.84375 714.140625 188.53125 699.761719 191.597656 689.519531 C 194.417969 680.089844 195.972656 676.539062 196.722656 676.332031 Z M 485.535156 706.519531 C 486.195312 706.457031 487.128906 706.847656 488.160156 707.707031 C 490.246094 709.453125 493.089844 714.238281 495.910156 718.519531 C 502.222656 728.109375 505.289062 735.8125 510.660156 746.269531 C 515.523438 755.742188 519.40625 764.824219 523.597656 773.957031 C 525.640625 778.417969 528.996094 782.832031 530.222656 787.394531 C 532.710938 796.652344 525.042969 793.613281 520.660156 787.457031 C 519.199219 785.40625 519.023438 782.464844 518.410156 781.394531 C 516.660156 778.359375 515.925781 774.605469 514.285156 770.957031 C 509.921875 761.261719 504.949219 750.496094 501.410156 742.144531 C 496.996094 731.730469 492.6875 724.019531 491.410156 722.144531 C 484.011719 711.320312 483.546875 706.714844 485.535156 706.519531 Z M 473.035156 707.519531 C 474.445312 707.5 479.363281 716.226562 483.660156 724.957031 C 489.9375 737.71875 497.910156 753.222656 499.535156 756.457031 C 504.898438 767.132812 509.152344 777.695312 511.847656 784.207031 C 516.203125 794.738281 522.332031 800.40625 514.097656 802.832031 C 512.71875 803.238281 508.429688 794.367188 504.535156 785.019531 C 498.039062 769.441406 491.003906 750.257812 490.347656 749.019531 C 487.851562 744.304688 468.617188 713.171875 472.785156 707.644531 C 472.84375 707.5625 472.941406 707.523438 473.035156 707.519531 Z M 450.535156 709.207031 C 451.265625 709.042969 452.144531 709.652344 452.785156 711.582031 C 453.914062 714.976562 450.996094 713.980469 452.285156 719.457031 C 454.746094 729.914062 460.285156 748.007812 460.410156 748.582031 C 460.867188 750.664062 462.246094 756.589844 462.910156 763.582031 C 463.410156 768.851562 463.070312 774.644531 463.972656 780.394531 C 465.242188 788.472656 468.671875 797.179688 469.285156 802.019531 C 469.894531 806.863281 467.65625 807.820312 465.222656 804.707031 C 462.945312 801.800781 460.847656 792.140625 458.910156 780.082031 C 457.449219 770.988281 456.964844 759.441406 455.097656 748.707031 C 453.449219 739.238281 450.625 730.230469 449.722656 723.269531 C 448.925781 717.132812 449.179688 712.886719 449.222656 711.582031 C 449.261719 710.335938 449.804688 709.375 450.535156 709.207031 Z M 503.722656 709.519531 C 505.234375 709.277344 508.320312 711.222656 511.285156 713.894531 C 514.757812 717.03125 516.328125 721.359375 518.285156 724.207031 C 518.867188 725.050781 526.921875 745.988281 534.597656 762.019531 C 539.847656 772.992188 545.34375 780.257812 545.097656 781.144531 C 543.15625 788.128906 537.421875 785.601562 535.035156 781.082031 C 534.171875 779.449219 533.488281 776.457031 532.160156 773.644531 C 527.773438 764.378906 522.117188 749.945312 516.285156 737.082031 C 512.125 727.917969 506.433594 720.757812 504.097656 715.519531 C 502.578125 712.125 502.449219 710.332031 503.160156 709.707031 C 503.308594 709.578125 503.503906 709.554688 503.722656 709.519531 Z M 517.222656 710.082031 C 517.339844 710.058594 517.503906 710.078125 517.722656 710.082031 C 519.175781 710.121094 522.714844 709.921875 525.347656 711.769531 C 526.863281 712.839844 530.46875 717.558594 534.410156 724.144531 C 538.878906 731.609375 543.859375 741.425781 548.535156 750.519531 C 556.058594 765.160156 562.15625 778.140625 556.472656 778.082031 C 556.367188 778.082031 551.695312 778.039062 548.722656 773.269531 C 546.480469 769.675781 545.910156 764.523438 543.847656 760.394531 C 537.886719 748.480469 522.011719 731.734375 518.847656 716.769531 C 517.722656 711.464844 516.382812 710.261719 517.222656 710.082031 Z M 441.097656 710.269531 C 446.203125 710.800781 444.742188 720.199219 445.035156 723.144531 C 445.847656 731.277344 447.789062 743.242188 448.785156 748.769531 C 450.691406 759.398438 451.644531 767.652344 453.097656 773.394531 C 455.5625 783.160156 460 788.632812 456.847656 798.769531 C 456.386719 800.234375 447.890625 793.1875 439.722656 787.269531 C 429.730469 780.03125 424.804688 776.875 423.160156 771.394531 C 422.007812 767.574219 423.132812 753.148438 422.410156 739.332031 C 421.820312 728.074219 419.019531 716.980469 420.722656 714.144531 C 423.363281 709.75 435.753906 710.835938 439.972656 710.332031 C 440.371094 710.285156 440.757812 710.234375 441.097656 710.269531 Z M 462.472656 710.644531 C 463.191406 709.976562 471.390625 729.246094 480.035156 749.207031 C 486.429688 763.988281 494.808594 780.011719 500.285156 792.457031 C 505.269531 803.789062 507.640625 812.25 507.910156 813.269531 C 508.421875 815.222656 508.070312 820.675781 510.847656 825.144531 C 515.386719 832.460938 518.320312 838.082031 514.097656 838.082031 C 514.097656 837.023438 500.722656 831.789062 500.722656 829.832031 C 499.855469 829.832031 486.492188 819.464844 486.222656 819.457031 C 485.601562 819.4375 482.605469 813.304688 480.285156 802.707031 C 477.960938 792.109375 476.34375 777.007812 473.160156 763.019531 C 468.046875 740.566406 461.5 718.496094 462.410156 710.769531 C 462.417969 710.707031 462.449219 710.667969 462.472656 710.644531 Z M 538.222656 713.707031 C 543.144531 713.363281 547.207031 720.679688 551.660156 728.457031 C 551.835938 728.765625 554.289062 732.191406 556.097656 736.644531 C 557.695312 740.574219 558.515625 745.324219 560.660156 749.519531 C 562.855469 753.820312 570.855469 762.664062 569.910156 766.894531 C 568.839844 771.679688 565.167969 769.699219 562.285156 764.644531 C 558.578125 758.148438 555.65625 747.390625 555.472656 748.019531 C 555.105469 749.265625 543.042969 729.6875 543.035156 729.394531 C 542.960938 726.816406 541.191406 725.808594 540.160156 723.894531 C 538.035156 719.945312 536.4375 717.539062 536.722656 715.832031 C 536.851562 715.058594 536.53125 713.824219 538.222656 713.707031 Z M 413.660156 715.832031 C 414.320312 715.683594 415.1875 716.359375 415.535156 718.019531 C 416.019531 720.324219 415.410156 724.84375 416.035156 729.082031 C 416.890625 734.914062 416.648438 741.898438 417.160156 747.644531 C 417.476562 751.1875 416.917969 754.78125 416.660156 757.769531 C 416.136719 763.796875 415.085938 767.40625 412.785156 763.207031 C 412.148438 762.042969 412.617188 758.667969 411.785156 756.332031 C 410.445312 752.589844 410.992188 748.9375 411.097656 745.207031 C 411.230469 740.410156 411.175781 735.554688 411.347656 730.957031 C 411.515625 726.371094 411.839844 721.664062 412.847656 716.957031 C 412.980469 716.320312 413.261719 715.921875 413.660156 715.832031 Z M 554.597656 717.894531 C 562 717.84375 586.441406 725.84375 587.597656 727.957031 C 587.625 728.011719 582.421875 730.050781 577.722656 732.644531 C 573.15625 735.167969 571.273438 737.84375 568.972656 738.207031 C 565.09375 738.820312 559.875 734.921875 557.160156 730.144531 C 555.359375 726.980469 555.710938 723.082031 554.410156 721.144531 C 553.738281 720.148438 552.710938 717.90625 554.597656 717.894531 Z M 403.847656 720.582031 C 404.539062 720.292969 405.441406 726.738281 405.472656 727.144531 C 405.886719 732.347656 405.609375 735.957031 405.535156 741.519531 C 405.511719 743.160156 404.15625 744.734375 404.785156 746.832031 C 404.925781 747.308594 405.519531 757.179688 402.785156 750.332031 C 401.664062 747.523438 402.640625 742.078125 402.535156 740.769531 C 402.167969 736.242188 401.429688 732.382812 401.722656 728.707031 C 401.925781 726.195312 402.890625 723.785156 403.535156 721.144531 C 403.621094 720.789062 403.746094 720.625 403.847656 720.582031 Z M 308.160156 741.394531 C 317.917969 741.65625 330.574219 744.347656 334.410156 745.269531 C 344.339844 747.664062 352.957031 751.957031 358.097656 753.144531 C 360.601562 753.722656 363.699219 756.222656 369.035156 758.332031 C 376.339844 761.222656 386.320312 764.230469 390.847656 768.019531 C 395.703125 772.085938 394.328125 776.296875 389.097656 774.957031 C 387.941406 774.664062 372.5625 769.796875 355.222656 764.394531 C 348.039062 762.15625 339.664062 759.996094 332.472656 757.832031 C 324.539062 755.445312 315.078125 755.5 308.347656 753.019531 C 290.492188 746.433594 294.527344 742.027344 304.160156 741.457031 C 305.402344 741.382812 306.765625 741.359375 308.160156 741.394531 Z M 590.472656 743.144531 C 591.308594 743.179688 591.992188 743.578125 592.347656 744.519531 C 596.394531 755.34375 581.546875 766.679688 579.785156 764.707031 C 576.199219 760.699219 572.078125 757.445312 574.660156 753.082031 C 576.546875 749.898438 580.148438 747.339844 581.285156 746.957031 C 583.824219 746.105469 587.957031 743.042969 590.472656 743.144531 Z M 266.097656 743.457031 C 266.773438 743.472656 267.421875 743.527344 268.097656 743.644531 C 270.347656 744.042969 274.664062 744.542969 275.347656 746.644531 C 275.667969 747.636719 277.210938 750.1875 275.410156 751.394531 C 274.722656 751.855469 269.792969 751.613281 266.972656 751.957031 C 260.035156 752.808594 252.988281 753.90625 250.660156 754.457031 C 246.15625 755.523438 242.566406 757.394531 239.910156 758.269531 C 238.207031 758.828125 236.789062 758.714844 236.160156 758.519531 C 234.804688 758.101562 234.582031 757.003906 235.472656 756.769531 C 245.3125 754.203125 255.914062 743.25 266.097656 743.457031 Z M 663.285156 748.269531 C 667.824219 748.09375 671.382812 748.574219 672.535156 750.082031 C 674.191406 752.25 673.25 755.871094 673.972656 759.582031 C 676.328125 771.699219 676.464844 789.246094 675.347656 797.894531 C 675.230469 798.808594 673.984375 800.851562 671.785156 801.832031 C 668.351562 803.363281 663.050781 803.828125 659.160156 805.394531 C 651.210938 808.605469 645.78125 811.734375 641.847656 814.144531 C 635.175781 818.234375 628.921875 824.296875 627.785156 823.644531 C 625.234375 822.1875 626.96875 817.84375 627.035156 814.519531 C 627.230469 804.109375 628.609375 792.105469 629.847656 783.144531 C 630.320312 779.710938 634.261719 757.773438 637.097656 755.144531 C 641.332031 751.21875 647.894531 750.175781 654.347656 749.207031 C 657.457031 748.742188 660.558594 748.375 663.285156 748.269531 Z M 139.722656 762.894531 C 145.019531 762.574219 160.664062 769.148438 165.222656 771.957031 C 171.761719 775.988281 177.339844 781.691406 182.910156 786.519531 C 188.117188 791.039062 194.601562 797.597656 201.097656 802.769531 C 205.9375 806.625 212.976562 809.800781 216.285156 811.832031 C 218.777344 813.367188 218.246094 814.214844 218.035156 814.457031 C 217.308594 815.285156 206.386719 809.972656 189.035156 799.644531 C 177.179688 792.589844 165.777344 785.082031 163.910156 783.957031 C 156.792969 779.667969 148.84375 777.949219 143.972656 774.832031 C 140.734375 772.765625 138.734375 770.832031 138.410156 770.269531 C 137.1875 768.175781 137.480469 765.933594 136.097656 765.957031 C 132.589844 766.023438 130.019531 765.722656 128.722656 765.832031 L 128.660156 765.832031 C 128.511719 765.859375 121.804688 766.707031 117.160156 769.207031 C 112.59375 771.667969 109.578125 775.167969 109.660156 775.707031 C 109.960938 777.703125 112.546875 778.851562 114.347656 780.394531 C 117.554688 783.148438 121.015625 785.828125 123.722656 787.519531 C 130.699219 791.878906 139.027344 796.984375 146.597656 802.144531 C 164.945312 814.660156 180.726562 827.964844 182.410156 829.144531 C 195.765625 838.53125 210.796875 845.894531 210.472656 850.269531 C 210.335938 852.070312 170.921875 852.324219 166.785156 852.269531 C 154.921875 852.117188 145.390625 849.121094 125.847656 839.582031 C 116.589844 835.066406 104.464844 826.714844 98.035156 815.207031 C 91.4375 803.394531 93.5 790.40625 100.347656 779.707031 C 102.3125 776.636719 103.472656 774.046875 106.035156 771.894531 C 107.675781 770.515625 109.941406 768.78125 112.847656 767.957031 C 115.34375 767.25 120.488281 767.152344 122.472656 766.582031 L 127.597656 765.082031 C 128.269531 764.828125 129.5 764.804688 130.972656 764.519531 C 133.550781 764.023438 136.714844 763.078125 139.722656 762.894531 Z M 285.160156 769.957031 C 285.953125 769.824219 286.953125 770.324219 287.910156 770.394531 C 292.878906 770.757812 292.019531 771.757812 292.160156 775.019531 C 292.289062 778.027344 291.378906 778.609375 289.535156 778.832031 C 287.71875 779.050781 285.785156 779.539062 285.472656 778.832031 C 284.382812 776.382812 282.828125 771.890625 284.472656 770.332031 C 284.695312 770.121094 284.894531 770.003906 285.160156 769.957031 Z M 265.785156 770.019531 C 266.332031 770.007812 266.921875 770.246094 267.410156 771.144531 C 268.195312 772.601562 267.914062 774.976562 268.035156 777.394531 C 268.125 779.257812 269.378906 780.484375 268.035156 781.894531 C 266.703125 783.292969 262.960938 782.828125 256.847656 784.207031 C 255.359375 784.542969 256.0625 785.089844 254.535156 785.269531 C 250.585938 785.730469 244.710938 784.101562 242.347656 781.144531 C 240.875 779.308594 241.273438 776.679688 241.910156 774.332031 C 242.425781 772.4375 244.949219 776.003906 248.222656 778.832031 C 252.5625 782.589844 254.820312 785.367188 257.847656 781.144531 C 259.253906 779.179688 261.515625 778.722656 261.972656 777.519531 C 262 777.449219 262.035156 770.234375 264.410156 770.269531 C 264.742188 770.277344 265.234375 770.03125 265.785156 770.019531 Z M 307.535156 771.957031 C 308.453125 772.019531 309.761719 773.015625 311.285156 773.644531 C 312.832031 774.285156 314.710938 774.070312 315.660156 775.394531 C 317.140625 777.46875 316.800781 780.773438 314.535156 782.207031 C 313.1875 783.058594 312.144531 781.625 310.660156 781.269531 C 309.347656 780.957031 307.582031 781.820312 306.910156 780.707031 C 306.0625 779.304688 306.613281 777.019531 306.347656 775.707031 C 306.140625 774.6875 306.242188 772.707031 306.785156 772.207031 C 306.890625 772.109375 307.027344 772.054688 307.160156 772.019531 C 307.273438 771.988281 307.402344 771.949219 307.535156 771.957031 Z M 329.847656 778.082031 C 329.960938 778.03125 330.078125 778.058594 330.222656 778.082031 C 333.285156 778.589844 332.832031 777.863281 336.285156 779.894531 C 338.054688 780.9375 337.742188 783.277344 337.160156 785.269531 C 336.683594 786.898438 338.90625 787.457031 332.410156 787.457031 C 329.246094 787.457031 328.105469 778.84375 329.847656 778.082031 Z M 355.972656 786.582031 C 356.566406 786.5625 357.085938 786.691406 357.410156 787.269531 C 357.898438 788.152344 357.210938 789.835938 357.035156 791.519531 C 356.667969 794.953125 353.054688 796.488281 351.535156 793.519531 C 350.3125 791.132812 350.84375 788.898438 351.035156 787.769531 C 351.230469 786.609375 352.542969 786.820312 354.097656 786.769531 C 354.699219 786.75 355.378906 786.601562 355.972656 786.582031 Z M 580.097656 790.019531 C 581.320312 790.0625 583.683594 794.664062 585.785156 798.207031 C 586.800781 799.925781 589.988281 804.253906 589.410156 805.644531 C 589.246094 806.035156 590.226562 807.257812 589.035156 806.832031 C 588.511719 806.648438 587.546875 807.339844 587.097656 807.144531 C 585.148438 806.308594 584.269531 804.453125 582.785156 802.644531 C 581.617188 801.21875 579.71875 799.597656 579.410156 796.082031 C 579.011719 791.617188 579.359375 789.992188 580.097656 790.019531 Z M 372.660156 791.394531 C 374.214844 791.304688 375.394531 792.027344 375.847656 793.269531 C 376.140625 794.078125 375.625 795.363281 375.660156 796.269531 C 375.6875 797.089844 376.375 798.589844 376.222656 799.019531 C 375.90625 799.898438 374.558594 799.1875 373.972656 799.207031 C 370.824219 799.316406 370.78125 798.695312 370.597656 797.332031 C 370.027344 793.1875 370.382812 791.992188 370.972656 791.769531 C 371.558594 791.546875 372.140625 791.425781 372.660156 791.394531 Z M 246.222656 794.644531 C 248.050781 794.722656 249.546875 796.007812 250.222656 796.769531 C 251.042969 797.699219 252.328125 799.554688 252.097656 801.082031 C 251.9375 802.132812 250.699219 801.90625 250.097656 802.894531 C 249.027344 804.664062 248.371094 807.488281 247.785156 808.457031 C 247.433594 809.039062 246.765625 807.933594 245.785156 808.019531 C 243.902344 808.183594 241.082031 809.765625 240.285156 809.144531 C 239.664062 808.664062 238.679688 807.546875 237.347656 806.332031 C 233.347656 802.6875 226.140625 797.691406 227.222656 797.082031 C 228.722656 796.238281 231.191406 798.695312 234.347656 799.769531 C 235.492188 800.160156 238.179688 800.417969 240.597656 799.457031 C 242.136719 798.839844 242.828125 795.753906 244.285156 795.082031 C 244.953125 794.773438 245.613281 794.621094 246.222656 794.644531 Z M 435.222656 796.957031 C 436 796.851562 437.097656 796.9375 438.285156 797.269531 C 441.257812 798.097656 444.535156 800.652344 444.847656 800.769531 C 446.160156 801.257812 451.136719 803.796875 454.910156 807.894531 C 457.527344 810.738281 459.03125 814.171875 460.285156 817.394531 C 461.140625 819.601562 462.257812 821.769531 462.097656 823.394531 C 461.925781 825.105469 461.949219 828.332031 459.597656 828.832031 C 455.933594 829.617188 449.71875 825.003906 445.222656 818.019531 C 439.855469 809.6875 436.964844 799.375 435.597656 798.769531 C 433.566406 797.875 433.921875 797.132812 435.222656 796.957031 Z M 394.035156 798.144531 C 395.285156 798.042969 396.464844 798.433594 396.972656 799.269531 C 397.550781 800.226562 397.136719 802.539062 396.285156 805.894531 C 395.9375 807.261719 392.035156 804.648438 391.160156 803.894531 C 390.085938 802.96875 389.976562 801.285156 390.785156 799.957031 C 391.476562 798.820312 392.78125 798.25 394.035156 798.144531 Z M 568.160156 798.957031 C 568.40625 798.933594 568.644531 798.949219 568.910156 798.957031 C 570.660156 799.011719 572.550781 799.816406 572.785156 801.082031 C 573.671875 805.898438 576.394531 808.191406 577.222656 809.707031 C 578.480469 812.019531 577.78125 813.296875 576.347656 814.144531 C 575.363281 814.726562 573.828125 814.863281 573.160156 815.894531 C 571.875 817.878906 563.503906 802.65625 566.347656 799.707031 C 566.75 799.289062 567.417969 799.035156 568.160156 798.957031 Z M 334.347656 800.769531 C 338.5625 800.226562 340.710938 806.699219 344.785156 815.457031 C 347.480469 821.257812 352.0625 827.90625 354.910156 834.769531 C 357.09375 840.042969 358.433594 845.398438 361.035156 850.019531 C 363.914062 855.144531 362.996094 861.03125 364.472656 864.832031 C 366.113281 869.0625 369.785156 873.058594 370.597656 873.082031 C 370.722656 873.085938 379.417969 873.414062 390.847656 878.019531 C 406.152344 884.191406 424.3125 892.601562 427.160156 896.144531 C 428.40625 897.699219 426.074219 900.152344 422.972656 901.644531 C 417.320312 904.363281 416.894531 905.171875 415.847656 905.707031 C 414.636719 906.328125 408.316406 901.449219 386.285156 891.082031 C 379.582031 887.929688 371.882812 885.097656 364.035156 882.394531 C 360.726562 881.257812 344.464844 874.660156 327.472656 870.894531 C 312.125 867.492188 295.808594 867.054688 290.535156 866.394531 C 289.316406 866.242188 289.179688 865.03125 289.222656 864.957031 C 290.625 862.441406 294.78125 861.722656 299.347656 860.769531 C 305.03125 859.582031 311.636719 858.527344 317.847656 859.019531 C 325.757812 859.652344 331.996094 861.859375 332.285156 861.894531 C 338.136719 862.589844 361.296875 874.316406 361.285156 867.457031 C 361.273438 863.273438 359.097656 859.160156 357.347656 855.082031 C 357.070312 854.445312 351.078125 843.71875 345.535156 831.707031 C 338.84375 817.210938 332.570312 801 334.347656 800.769531 Z M 692.472656 801.144531 C 693.195312 800.945312 694.304688 802.226562 695.535156 803.832031 C 696.882812 805.59375 699.535156 808.105469 700.285156 810.269531 C 701.691406 814.328125 698.257812 815.664062 695.722656 815.144531 C 693.988281 814.792969 692.429688 812.476562 692.285156 811.394531 C 691.269531 804.058594 691.542969 801.40625 692.472656 801.144531 Z M 409.472656 803.707031 C 411.085938 803.6875 413.230469 804.417969 414.285156 804.644531 C 416.203125 805.058594 416.269531 807.929688 416.222656 809.207031 C 416.074219 813.058594 417.097656 813.242188 414.910156 813.019531 C 407.234375 812.230469 410.25 814.121094 407.785156 807.332031 C 406.757812 804.5 407.855469 803.726562 409.472656 803.707031 Z M 355.410156 805.082031 C 356.519531 804.902344 358.359375 805.90625 359.472656 806.269531 C 370.015625 809.722656 380.226562 839.953125 383.347656 849.832031 C 386.4375 859.617188 390.097656 870.636719 388.035156 870.144531 C 387.1875 869.945312 383.929688 870.429688 379.472656 864.394531 C 375.148438 858.546875 370.695312 845.558594 369.597656 840.269531 C 368.917969 837.003906 364.316406 823.453125 360.347656 815.582031 C 357.449219 809.839844 354.832031 809.355469 354.535156 807.082031 C 354.355469 805.714844 354.742188 805.191406 355.410156 805.082031 Z M 555.472656 806.019531 C 555.675781 806.039062 562.097656 812.902344 563.785156 817.644531 C 564.441406 819.5 565.441406 820.808594 563.722656 822.582031 C 558.363281 828.113281 551.546875 818.582031 550.347656 813.644531 C 550.253906 813.265625 550.78125 809.839844 552.160156 807.769531 C 553.101562 806.355469 554.84375 805.957031 555.472656 806.019531 Z M 322.597656 806.832031 C 326.203125 806.574219 327.289062 807.945312 328.535156 810.019531 C 329.789062 812.113281 331.585938 814.863281 330.660156 818.082031 C 330.089844 820.0625 327.070312 818.761719 324.972656 818.394531 C 324.605469 818.328125 320.984375 817.546875 319.160156 814.707031 C 318.199219 813.222656 317.558594 809.980469 318.847656 808.082031 C 319.71875 806.792969 319.320312 807.351562 320.910156 807.082031 C 321.535156 806.976562 322.082031 806.871094 322.597656 806.832031 Z M 540.847656 813.894531 C 542.464844 813.953125 543.386719 815.210938 544.722656 816.769531 C 545.570312 817.761719 545.792969 820.027344 546.785156 821.644531 C 547.460938 822.757812 549.0625 823.164062 549.222656 824.332031 C 550.359375 832.640625 546.824219 834.140625 543.910156 832.894531 C 542.347656 832.230469 541.714844 830.171875 540.410156 828.394531 C 537.910156 825.003906 535.402344 821.292969 536.472656 820.769531 C 537.988281 820.023438 536.90625 816.785156 537.910156 815.332031 C 538.601562 814.328125 537.777344 814.703125 538.910156 814.269531 C 539.652344 813.988281 540.304688 813.875 540.847656 813.894531 Z M 384.472656 816.644531 C 386.207031 816.621094 396.078125 829.101562 400.472656 848.457031 C 400.742188 849.652344 402.285156 855.519531 404.597656 861.269531 C 407.757812 869.152344 411.679688 877.332031 409.222656 878.019531 C 405.914062 878.949219 405.527344 875.246094 403.597656 872.019531 C 398.621094 863.71875 394.101562 853.816406 390.472656 845.019531 C 387.480469 837.765625 382.042969 823.179688 384.222656 816.832031 C 384.261719 816.71875 384.355469 816.648438 384.472656 816.644531 Z M 671.847656 817.332031 C 672.175781 817.347656 672.5 817.476562 672.722656 817.707031 C 674.730469 819.789062 676.75 823.046875 674.847656 825.457031 C 672.820312 828.023438 666.648438 829.789062 663.410156 832.394531 C 655.429688 838.828125 650.746094 841.988281 641.972656 848.144531 C 638.792969 850.375 635.652344 849.074219 634.660156 848.644531 C 634.289062 848.488281 633.835938 847.480469 634.972656 846.707031 C 637.144531 845.238281 642.074219 843.460938 643.222656 841.707031 C 644.414062 839.878906 640.394531 839.210938 638.722656 839.894531 C 632.613281 842.398438 618.351562 852.097656 607.160156 853.582031 C 607.117188 853.589844 596.320312 856.414062 585.847656 861.707031 C 572.585938 868.410156 558.953125 877.960938 558.535156 878.207031 C 551.851562 882.113281 545.40625 884.632812 541.972656 886.582031 C 540.324219 887.519531 539.867188 888.761719 537.910156 887.769531 C 535.46875 886.535156 532.21875 883.371094 532.972656 882.269531 C 534.808594 879.589844 545.964844 881.15625 556.097656 875.207031 C 559.074219 873.460938 562.402344 868.320312 566.347656 866.332031 C 571.503906 863.734375 577.957031 863.652344 583.472656 860.144531 C 591.722656 854.894531 600.109375 849.539062 607.972656 845.582031 C 610.570312 844.273438 617.746094 839.660156 626.660156 837.519531 C 628.769531 837.015625 630.523438 838.011719 632.847656 838.269531 C 635.320312 838.546875 638.359375 838.0625 640.660156 837.019531 C 648.039062 833.679688 653.984375 828.964844 659.597656 825.332031 C 664.726562 822.011719 669.53125 817.234375 671.847656 817.332031 Z M 402.597656 820.582031 C 404.066406 820.566406 408.832031 821.5 414.347656 823.519531 C 421.574219 826.167969 429.835938 830.847656 436.660156 834.332031 C 443.699219 837.929688 449.203125 840.292969 447.035156 841.269531 C 446.515625 841.503906 445.179688 841.34375 443.847656 841.207031 C 443.710938 841.195312 434.707031 837.929688 425.222656 833.769531 C 418.148438 830.667969 412.023438 826.738281 407.535156 824.082031 C 404.359375 822.203125 401.367188 821.136719 402.160156 820.644531 C 402.226562 820.605469 402.386719 820.585938 402.597656 820.582031 Z M 470.722656 821.082031 C 472.285156 821.070312 473.964844 822.707031 474.722656 827.019531 C 475.335938 830.515625 475.707031 836.667969 474.347656 838.082031 C 473.53125 838.933594 471.367188 836.765625 470.285156 834.957031 C 469.644531 833.894531 467.296875 824.894531 467.785156 823.644531 C 468.367188 822.136719 469.507812 821.09375 470.722656 821.082031 Z M 527.160156 822.207031 C 529.386719 822.375 531.050781 825.640625 531.660156 827.769531 C 531.777344 828.195312 532.789062 832.34375 533.597656 835.394531 C 535.875 844.007812 523.546875 834.6875 522.722656 832.644531 C 521.710938 830.140625 522.257812 826.359375 523.847656 824.269531 C 525.050781 822.691406 526.148438 822.132812 527.160156 822.207031 Z M 322.972656 825.019531 C 325.171875 824.851562 327.859375 825.417969 330.472656 826.582031 C 341.769531 831.621094 341.589844 834.957031 337.097656 836.082031 C 335.992188 836.359375 329.207031 835.871094 324.222656 835.519531 C 321.425781 835.324219 319.210938 835.714844 318.847656 834.957031 C 317.304688 831.777344 317.859375 829.523438 318.410156 827.957031 C 319.058594 826.109375 320.769531 825.1875 322.972656 825.019531 Z M 402.910156 828.707031 C 405.578125 828.863281 419.339844 835.101562 421.097656 835.832031 C 430.195312 839.621094 442.160156 847.296875 443.847656 848.457031 C 448.71875 851.820312 459.207031 857.019531 468.035156 859.957031 C 472.820312 861.554688 482.589844 862.242188 479.722656 862.519531 C 479.679688 862.527344 480.128906 866.105469 476.847656 866.832031 C 473.367188 867.609375 468.292969 867.1875 466.597656 867.082031 C 466.492188 867.074219 455.777344 864.117188 445.847656 860.082031 C 436.222656 856.171875 427.527344 851.09375 426.285156 850.519531 C 420.800781 847.992188 408.347656 843.375 403.722656 835.769531 C 402.367188 833.542969 400.828125 829.867188 402.535156 828.769531 C 402.605469 828.722656 402.730469 828.699219 402.910156 828.707031 Z M 605.035156 832.207031 C 605.367188 832.203125 605.734375 832.277344 606.097656 832.394531 C 607.089844 832.714844 608.6875 833.785156 608.285156 835.082031 C 607.9375 836.191406 605.824219 836.085938 604.535156 837.144531 C 604.011719 837.578125 601.863281 839.367188 599.597656 840.019531 C 598.164062 840.429688 598.160156 839.777344 597.472656 839.019531 C 597 838.503906 595.46875 838.21875 595.972656 836.894531 C 596.511719 835.476562 599.695312 833.910156 602.660156 832.894531 C 603.222656 832.699219 604.035156 832.21875 605.035156 832.207031 Z M 699.660156 833.769531 C 701.324219 833.675781 702.527344 834.210938 702.722656 834.457031 C 703.011719 834.824219 699.539062 839.738281 695.347656 845.332031 C 693.375 847.964844 690.132812 849.71875 687.597656 852.019531 C 685.027344 854.355469 672.980469 861.363281 672.222656 862.957031 C 671.855469 863.71875 669.75 862.640625 669.285156 861.644531 C 668.84375 860.707031 669.574219 859.082031 669.785156 858.582031 C 671.242188 855.136719 676.574219 850.636719 680.347656 847.894531 C 682.425781 846.386719 684.734375 843.59375 687.410156 842.394531 C 690.632812 840.949219 693.519531 836.449219 696.285156 834.832031 C 697.496094 834.125 698.660156 833.828125 699.660156 833.769531 Z M 490.222656 834.019531 C 491.492188 834.054688 493.246094 834.957031 494.910156 835.957031 C 495.683594 836.425781 504.410156 841.550781 503.347656 843.144531 C 502.125 844.980469 498.261719 846.035156 494.972656 846.457031 C 492.570312 846.765625 490.488281 847.144531 489.847656 845.019531 C 487.222656 836.339844 488.101562 833.960938 490.222656 834.019531 Z M 721.972656 837.769531 C 726.882812 837.617188 731.90625 838.421875 736.285156 840.207031 C 739.269531 841.425781 748.308594 845.535156 746.910156 850.832031 C 746.636719 851.863281 744.933594 854.839844 742.535156 855.957031 C 738.253906 857.945312 732.613281 858.285156 735.285156 861.457031 C 736.507812 862.910156 740.605469 862.574219 744.535156 863.332031 C 752.574219 864.886719 762.90625 867.113281 767.285156 871.207031 C 775.421875 878.816406 773.320312 890.25 766.972656 895.019531 C 762.625 898.28125 755.242188 897 749.222656 897.394531 C 745.832031 897.617188 741.882812 900.625 739.097656 900.519531 C 736.929688 900.441406 735.84375 897.707031 733.910156 895.082031 C 730.796875 890.851562 727.890625 885.292969 727.035156 883.894531 C 725.324219 881.113281 724.515625 877.886719 722.785156 877.394531 C 721.039062 876.898438 720.378906 879.75 719.222656 882.144531 C 718.066406 884.542969 716.363281 886.433594 715.910156 886.207031 C 706.515625 881.574219 709.796875 861.410156 712.535156 859.832031 C 713.371094 859.351562 712.941406 856.074219 712.785156 853.144531 C 712.644531 850.558594 712.886719 848.273438 711.472656 848.457031 C 711.078125 848.507812 706.679688 850.902344 702.285156 854.394531 C 694.953125 860.21875 686.277344 868.605469 684.535156 869.269531 C 680.640625 870.75 680.132812 867.671875 679.472656 867.019531 C 677.78125 865.351562 682.886719 861.785156 685.785156 859.707031 C 687.9375 858.164062 689.933594 855 692.910156 852.582031 C 695.675781 850.335938 698.511719 847.4375 704.847656 842.957031 C 709.464844 839.691406 715.65625 837.964844 721.972656 837.769531 Z M 586.285156 838.894531 C 587.105469 838.792969 587.851562 839.105469 588.347656 839.019531 C 590.933594 838.582031 590.546875 840.707031 592.160156 841.144531 C 592.472656 841.230469 593.121094 841.988281 592.910156 842.269531 C 592.554688 842.742188 590.953125 842.839844 590.035156 843.644531 C 588.886719 844.644531 588.066406 846.242188 586.035156 845.144531 C 584.082031 844.097656 583.085938 840.628906 585.472656 839.144531 C 585.742188 838.976562 586.011719 838.929688 586.285156 838.894531 Z M 320.347656 840.957031 C 320.914062 840.945312 321.488281 840.960938 322.160156 841.019531 C 325.191406 841.292969 333.773438 841.394531 338.722656 845.144531 C 347.023438 851.445312 354.886719 858.117188 341.785156 857.144531 C 336.34375 856.738281 330.300781 854.597656 324.472656 853.332031 C 319.9375 852.351562 315.242188 852.480469 312.785156 850.582031 C 309.914062 848.367188 310.804688 846.183594 313.222656 844.082031 C 314.753906 842.746094 316.371094 841.039062 320.347656 840.957031 Z M 575.535156 845.269531 C 576.105469 845.277344 576.59375 845.28125 576.785156 845.332031 C 578.4375 845.78125 578.40625 847.050781 578.472656 847.894531 C 578.605469 849.671875 576.195312 852.699219 573.660156 853.894531 C 571.929688 854.710938 569.910156 854.222656 569.410156 853.582031 C 567.472656 851.117188 570.027344 847.046875 570.785156 845.832031 C 571.046875 845.414062 573.820312 845.25 575.535156 845.269531 Z M 560.535156 852.582031 C 562.488281 852.574219 562.777344 855.9375 562.722656 857.957031 C 562.691406 859.042969 562.191406 858.703125 561.160156 859.457031 C 560.8125 859.707031 560.460938 859.960938 560.160156 860.144531 C 556.558594 862.3125 555.695312 859.847656 555.410156 854.769531 C 555.3125 853.039062 557.214844 852.597656 560.535156 852.582031 Z M 413.222656 852.707031 C 414.882812 852.644531 418.582031 854.453125 422.035156 855.707031 C 425.300781 856.894531 428.378906 857.285156 429.285156 857.582031 C 434.707031 859.355469 440.355469 862.683594 446.160156 865.144531 C 453.160156 868.117188 460.085938 870.320312 463.347656 873.894531 C 464.535156 875.199219 461.828125 876.847656 460.347656 879.519531 C 459.527344 881 456.90625 880.050781 455.222656 879.519531 C 454.691406 879.351562 449.453125 877.886719 443.097656 875.207031 C 439.992188 873.902344 430.355469 869.367188 423.035156 865.082031 C 421.0625 863.929688 413.058594 860.242188 412.847656 858.832031 C 412.453125 856.238281 411.351562 853.667969 412.660156 852.832031 C 412.808594 852.738281 412.984375 852.71875 413.222656 852.707031 Z M 516.410156 854.582031 C 518.738281 854.570312 521.492188 855.410156 522.410156 855.644531 C 526.503906 856.695312 524.585938 857.796875 522.285156 859.457031 C 519.507812 861.464844 515.164062 862.855469 514.097656 863.957031 C 513.21875 864.871094 511.089844 864.960938 510.035156 865.519531 C 506.867188 867.191406 504.171875 868.566406 500.722656 868.082031 C 500.238281 868.015625 495.71875 866.472656 492.847656 864.957031 C 489.976562 863.445312 489.199219 861.570312 493.410156 860.894531 C 494.074219 860.789062 499.476562 859.675781 505.847656 858.082031 C 510.183594 857 512.425781 855.054688 515.410156 854.644531 C 515.71875 854.601562 516.078125 854.585938 516.410156 854.582031 Z M 544.035156 859.832031 C 544.75 859.863281 545.371094 860.167969 545.785156 860.269531 C 545.839844 860.285156 547.082031 860.589844 547.472656 861.769531 C 547.859375 862.949219 547.417969 865.027344 547.472656 866.332031 C 547.527344 867.703125 548.089844 869.144531 546.035156 869.144531 C 545.386719 869.144531 544.746094 869.207031 544.097656 869.144531 C 544.03125 869.140625 542.722656 869.269531 541.847656 868.207031 C 540.71875 866.84375 540.140625 863.898438 541.910156 861.019531 C 542.507812 860.042969 543.316406 859.800781 544.035156 859.832031 Z M 222.910156 866.019531 C 224.152344 866.039062 225.496094 866.09375 226.660156 866.019531 C 230.230469 865.789062 229.660156 869.914062 226.472656 873.082031 C 224.476562 875.0625 219.398438 876.917969 216.347656 878.019531 C 210.953125 879.972656 211.132812 875.519531 213.535156 872.144531 C 214.625 870.613281 216.878906 869.902344 218.035156 869.082031 C 218.953125 868.429688 218.695312 866.742188 219.597656 866.394531 C 220.53125 866.035156 221.664062 866 222.910156 866.019531 Z M 530.222656 866.519531 C 530.835938 866.480469 531.296875 866.65625 531.660156 867.082031 C 532.902344 868.535156 533.722656 868.238281 533.910156 868.894531 C 534.378906 870.574219 531.230469 872.949219 529.722656 874.082031 C 524.597656 877.9375 525.679688 877.984375 518.910156 876.957031 C 514.269531 876.253906 511.09375 874.511719 511.347656 873.144531 C 511.695312 871.269531 516.933594 871.441406 521.160156 869.957031 C 525.363281 868.484375 528.375 866.636719 530.222656 866.519531 Z M 643.535156 868.957031 C 650.09375 869.234375 664.9375 879.125 683.285156 891.582031 C 696.355469 900.460938 715.007812 909.4375 728.347656 918.082031 C 743.53125 927.925781 764.378906 939.0625 780.847656 947.957031 C 789.484375 952.625 798.800781 956.5625 794.160156 956.082031 C 793.308594 955.996094 788.050781 954.214844 784.285156 952.644531 C 778.214844 950.117188 771.761719 945.246094 764.722656 941.144531 C 754.761719 935.34375 744.109375 929.980469 736.035156 925.082031 C 727.90625 920.15625 718.441406 915.523438 709.972656 910.207031 C 693.597656 899.933594 679.03125 890.886719 672.097656 887.832031 C 666.183594 885.226562 660.34375 882.09375 656.785156 879.582031 C 651.238281 875.667969 649.128906 872.746094 643.722656 873.269531 C 638.203125 873.804688 632.246094 879.738281 622.472656 886.707031 C 613.957031 892.773438 603.976562 896.339844 595.597656 899.957031 C 592.136719 901.449219 589.332031 906.355469 585.410156 906.082031 C 583.53125 905.953125 581.863281 905.445312 580.535156 904.457031 C 579.515625 903.699219 591.511719 898.179688 604.910156 891.207031 C 613.5 886.738281 622.449219 881.25 629.597656 877.394531 C 636.21875 873.824219 640.308594 870.046875 641.222656 869.457031 C 641.804688 869.082031 642.597656 868.917969 643.535156 868.957031 Z M 279.910156 871.207031 C 280.890625 871.167969 282.003906 871.167969 283.222656 871.207031 C 294.628906 871.582031 314.90625 875.375 325.722656 877.707031 C 347.207031 882.34375 370.007812 889.578125 385.785156 897.894531 C 388.628906 899.394531 401.988281 902.972656 405.597656 907.894531 C 408.066406 911.265625 399.039062 915.707031 395.285156 916.769531 C 393.871094 917.171875 390.695312 915.089844 388.535156 914.269531 C 379.636719 910.890625 366.695312 903.429688 360.097656 901.207031 C 356.0625 899.851562 338.300781 893.0625 319.972656 889.144531 C 296.40625 884.109375 269.820312 883.570312 270.097656 882.082031 C 271.570312 874.074219 273.03125 871.5 279.910156 871.207031 Z M 418.035156 871.207031 C 423.964844 871.152344 432.371094 875.378906 438.847656 878.957031 C 443.722656 881.65625 447.878906 883.574219 447.035156 885.207031 C 444.585938 889.949219 439.09375 892.050781 433.972656 891.019531 C 430.761719 890.375 428.132812 887.675781 425.160156 886.144531 C 422.253906 884.648438 419.183594 884.226562 417.660156 882.332031 C 416.445312 880.820312 417.800781 879.457031 417.660156 877.894531 C 417.4375 875.453125 416.109375 871.226562 418.035156 871.207031 Z M 482.597656 871.769531 C 486.4375 871.898438 491.082031 879.367188 490.285156 880.707031 C 489.941406 881.28125 485.082031 877.378906 481.097656 877.082031 C 479.226562 876.945312 476.148438 879.316406 471.972656 882.144531 C 466.585938 885.789062 458.492188 890.269531 452.160156 894.832031 C 445.0625 899.941406 439.300781 906.046875 435.847656 906.832031 C 435.207031 906.976562 434.765625 905.742188 434.285156 905.582031 C 432.328125 904.9375 468.449219 882.84375 469.722656 881.582031 C 472.710938 878.609375 477.605469 874.40625 481.035156 872.207031 C 481.53125 871.886719 482.046875 871.753906 482.597656 871.769531 Z M 229.535156 880.332031 C 230.058594 880.328125 230.507812 880.382812 230.972656 880.519531 C 232.933594 881.109375 232.40625 882.507812 232.347656 883.894531 C 232.257812 885.988281 231.269531 889.027344 228.285156 891.707031 C 226.492188 893.320312 223.035156 894.546875 221.285156 896.019531 C 219.003906 897.9375 218.476562 899.910156 216.597656 900.832031 C 215.40625 901.417969 214.09375 901.207031 213.410156 901.207031 C 213.410156 895.433594 213.507812 892.710938 217.722656 887.582031 C 220.882812 883.730469 225.863281 880.367188 229.535156 880.332031 Z M 274.097656 891.144531 C 277.765625 891.011719 283.113281 891.648438 290.347656 892.394531 C 299.113281 893.300781 310.222656 893.6875 319.597656 896.832031 C 327.8125 899.585938 337.558594 900.710938 347.410156 903.769531 C 365.863281 909.503906 383.945312 916.824219 387.722656 917.957031 C 394.019531 919.847656 386.621094 921.699219 383.785156 924.082031 C 380.136719 927.144531 377.933594 928.949219 373.597656 928.144531 C 371.839844 927.820312 363.628906 924 352.847656 919.832031 C 332.964844 912.152344 315.488281 907.351562 294.097656 904.644531 C 288.265625 903.910156 281.109375 905.640625 277.472656 905.269531 C 270.988281 904.613281 269.65625 902.453125 269.222656 901.207031 C 266.597656 893.679688 267.980469 891.367188 274.097656 891.144531 Z M 232.660156 897.207031 C 234.496094 897.226562 237.53125 903.492188 237.160156 905.269531 C 236.695312 907.492188 233.738281 912.617188 225.347656 917.519531 C 222.75 919.039062 220.457031 920.628906 218.910156 919.894531 C 214.441406 917.777344 216.199219 911.535156 219.035156 907.394531 C 220.613281 905.082031 223.8125 902.554688 225.785156 900.207031 C 226.363281 899.515625 230.25 897.183594 232.660156 897.207031 Z M 277.597656 911.457031 C 279.386719 911.425781 281.722656 911.511719 284.722656 911.582031 C 284.890625 911.585938 300.289062 912.527344 313.535156 914.519531 C 322.894531 915.925781 331.175781 918.550781 332.285156 918.832031 C 340.347656 920.90625 351.929688 925.023438 359.785156 929.082031 C 362.085938 930.269531 365.28125 930.71875 366.472656 932.019531 C 368.859375 934.625 367.144531 938.707031 363.285156 939.269531 C 359.878906 939.765625 355.019531 937.132812 346.035156 933.769531 C 336.433594 930.179688 324.722656 926.09375 312.972656 923.582031 C 310.957031 923.152344 303.207031 920.9375 295.097656 920.082031 C 284.667969 918.984375 273.6875 919.214844 273.597656 918.894531 C 271.851562 912.761719 272.230469 911.558594 277.597656 911.457031 Z M 483.285156 913.457031 C 483.796875 913.46875 484.292969 913.53125 484.785156 913.644531 C 487.183594 914.191406 495.210938 915.957031 500.285156 918.582031 C 501.078125 918.992188 505.195312 922.089844 508.910156 924.519531 C 515.402344 928.769531 512.976562 929.832031 510.035156 928.769531 C 508.796875 928.320312 506.992188 926.746094 504.785156 925.582031 C 501.558594 923.878906 497.765625 922.460938 495.785156 921.394531 C 493.027344 919.910156 490.445312 917.410156 487.097656 916.832031 C 482.519531 916.042969 477.800781 918.136719 474.660156 919.832031 C 472.945312 920.753906 471.679688 920.949219 469.785156 922.582031 C 468.253906 923.902344 464.632812 926.75 464.910156 924.394531 C 464.949219 924.058594 466.132812 922.957031 466.285156 922.394531 C 466.402344 921.953125 468.785156 920.894531 471.347656 918.957031 C 475.683594 915.679688 479.707031 913.382812 483.285156 913.457031 Z M 562.097656 913.457031 C 567.734375 913.242188 571.890625 915.546875 571.347656 917.582031 C 571.132812 918.378906 571.292969 919.480469 568.910156 919.832031 C 564.246094 920.523438 561.96875 923.261719 558.472656 925.332031 C 555.136719 927.308594 550.765625 929.03125 545.847656 929.707031 C 543.921875 929.96875 542.175781 930.585938 539.972656 930.207031 C 538.621094 929.972656 538.648438 927.527344 539.160156 926.707031 C 540.042969 925.285156 541.972656 925.433594 543.847656 924.957031 C 548.257812 923.839844 553.21875 920.316406 556.910156 917.394531 C 558.839844 915.867188 559.96875 913.539062 562.097656 913.457031 Z M 407.660156 916.769531 C 409.617188 916.769531 411.785156 917.054688 411.785156 918.832031 C 407.324219 918.832031 407.519531 925.082031 404.597656 925.082031 C 404.597656 929.46875 398.410156 929.964844 398.410156 932.269531 C 394.191406 932.269531 392.0625 936.394531 387.035156 936.394531 C 387.035156 938.238281 381.910156 937.953125 381.910156 940.519531 C 378.121094 940.519531 378.402344 944.769531 374.597656 944.769531 C 374.597656 942.808594 372.558594 941.644531 374.597656 941.644531 C 374.597656 938.460938 381.910156 937.921875 381.910156 935.394531 C 383.667969 935.394531 389.097656 932.878906 389.097656 931.269531 C 390.851562 931.269531 396.285156 928.753906 396.285156 927.144531 L 398.410156 927.144531 C 398.410156 925.296875 407.660156 921.0625 407.660156 916.769531 Z M 235.472656 917.394531 C 236.433594 917.382812 237.382812 917.570312 238.222656 918.082031 C 239.164062 918.65625 238.980469 919.980469 239.410156 920.894531 C 240.347656 922.90625 241.15625 925.019531 241.597656 927.457031 C 242.09375 930.222656 240.378906 930.996094 238.972656 932.894531 C 238.007812 934.195312 238.289062 937.027344 235.097656 937.457031 C 233.597656 937.660156 231.222656 940.574219 229.035156 939.957031 C 227.722656 939.589844 226.542969 936.222656 225.535156 935.082031 C 224.4375 933.847656 222.710938 932.753906 222.972656 929.769531 C 223.570312 922.886719 228.351562 920.46875 230.785156 918.957031 C 232.226562 918.0625 233.871094 917.417969 235.472656 917.394531 Z M 186.535156 926.082031 L 198.972656 926.082031 C 198.972656 929.441406 202.035156 931.011719 202.035156 934.332031 C 204.59375 934.332031 204.304688 939.519531 206.160156 939.519531 C 206.160156 942.527344 202.035156 938.886719 202.035156 936.394531 C 200.097656 936.394531 200.160156 933.332031 196.910156 933.332031 C 196.910156 931.222656 192.785156 932.316406 192.785156 930.207031 C 189.839844 930.207031 180.347656 930.140625 180.347656 933.332031 C 177.324219 933.332031 176.933594 935.394531 173.097656 935.394531 C 173.097656 937.582031 167.972656 937.972656 167.972656 940.519531 C 165.828125 940.519531 164.328125 945.769531 160.722656 945.769531 C 160.722656 949.277344 156.535156 949.820312 156.535156 951.957031 C 154.167969 951.957031 155.328125 955.019531 153.472656 955.019531 C 153.472656 952.820312 154.480469 947.832031 156.535156 947.832031 C 156.535156 944.175781 161.785156 942.957031 161.785156 940.519531 C 164.796875 940.519531 165.4375 937.457031 168.972656 937.457031 C 168.972656 936.179688 173.097656 935.5 173.097656 933.332031 C 175.894531 933.332031 176.566406 931.269531 179.347656 931.269531 C 179.347656 929.109375 184.472656 930.566406 184.472656 928.144531 C 185.351562 928.144531 186.535156 926.933594 186.535156 926.082031 Z M 281.660156 926.394531 C 281.847656 926.371094 282.058594 926.382812 282.285156 926.394531 C 284.585938 926.503906 288.839844 928.234375 295.222656 928.519531 C 301.667969 928.808594 307.671875 928.601562 313.910156 929.832031 C 319.347656 930.90625 324.761719 932.023438 328.097656 934.207031 C 330.972656 936.09375 330.800781 940.914062 332.472656 942.644531 C 336.550781 946.878906 336.570312 948.054688 333.410156 947.207031 C 332.074219 946.847656 330.871094 945.804688 328.035156 945.019531 C 323.847656 943.859375 318.039062 940.355469 311.410156 939.019531 C 303.972656 937.527344 294.375 937.09375 288.160156 935.707031 C 281.503906 934.222656 280.734375 933.246094 280.347656 930.582031 C 279.914062 927.640625 280.34375 926.558594 281.660156 926.394531 Z M 686.847656 932.207031 C 688.445312 932.089844 692.378906 934.269531 697.347656 936.644531 C 705.902344 940.742188 717.484375 946.726562 724.972656 951.957031 C 726.9375 953.332031 729.210938 954.890625 731.222656 955.769531 C 732.691406 956.414062 733.8125 956.847656 733.597656 957.582031 C 733.417969 958.195312 732.09375 959.652344 730.035156 959.644531 C 727.839844 959.636719 725.226562 957.585938 719.597656 954.707031 C 713.589844 951.640625 707.175781 947.78125 705.410156 946.582031 C 703.253906 945.125 698.382812 942.015625 694.472656 939.519531 C 692.570312 938.308594 691.265625 937.042969 689.910156 936.519531 C 688.375 935.925781 686.890625 936.097656 685.347656 935.144531 C 683.800781 934.191406 683.558594 932.449219 686.847656 932.207031 Z M 526.347656 933.894531 C 527.421875 933.929688 528.441406 934.3125 528.972656 935.019531 C 529.84375 936.179688 523.695312 941.015625 522.722656 941.582031 C 521.578125 942.25 519.453125 942.527344 517.535156 943.332031 C 514.496094 944.609375 511.542969 946.347656 510.410156 946.457031 C 504.222656 947.058594 510.785156 944.410156 514.285156 941.644531 C 517.523438 939.085938 519.824219 938.605469 523.472656 934.894531 C 524.160156 934.195312 525.273438 933.863281 526.347656 933.894531 Z M 242.972656 937.519531 C 245.660156 937.566406 246.242188 941.496094 246.222656 949.144531 C 246.214844 950.90625 246.101562 953.90625 243.847656 954.457031 C 241.371094 955.066406 238.257812 953.296875 236.972656 952.519531 C 230.027344 948.316406 237.839844 937.425781 242.972656 937.519531 Z M 291.660156 942.519531 C 292.058594 942.492188 292.472656 942.503906 292.910156 942.519531 C 303.148438 942.859375 323.371094 950.449219 325.972656 951.082031 C 330.996094 952.3125 335.269531 952.757812 334.785156 954.582031 C 332.667969 962.535156 322.816406 957.859375 316.722656 956.332031 C 308.929688 954.378906 300.09375 953.574219 295.347656 951.957031 C 283.984375 948.089844 285.636719 942.953125 291.660156 942.519531 Z M 291.660156 942.519531 "/>
</g>
</svg>
